<svg width="31" height="24" viewBox="0 0 31 24" fill="none" xmlns="http://www.w3.org/2000/svg">
<path d="M30.2647 2.8422C29.1795 3.32452 28.0107 3.64934 26.7852 3.79699C28.0377 3.04645 28.995 1.86035 29.4502 0.445401C28.2789 1.13934 26.982 1.6438 25.6015 1.91449C24.4991 0.735774 22.9218 0 21.182 0C17.2693 0 14.3951 3.64934 15.2786 7.43894C10.2463 7.18548 5.77995 4.77392 2.79256 1.10981C1.20536 3.83144 1.97066 7.39465 4.66768 9.1984C3.67599 9.16641 2.74335 8.89326 1.92637 8.44048C1.85993 11.2458 3.87285 13.8714 6.78641 14.4571C5.93498 14.6884 4.99989 14.7425 4.05002 14.5604C4.82025 16.9671 7.06202 18.7167 9.70982 18.7659C7.15799 20.7641 3.95159 21.6573 0.735352 21.2784C3.4176 22.9985 6.59939 24 10.0199 24C21.2706 24 27.6243 14.4989 27.2404 5.97724C28.4265 5.12581 29.4527 4.05783 30.2647 2.8422Z" fill="white"/>
</svg>
