<svg width="49" height="49" viewBox="0 0 49 49" fill="none" xmlns="http://www.w3.org/2000/svg">
<path d="M42.6873 28.2109H36.4542C36.3413 28.2109 36.25 28.3024 36.25 28.4151V32.3063H42.6873V28.2109Z" fill="#EBE7F2"/>
<path d="M6.3125 28.2109H12.5456C12.6584 28.2109 12.7498 28.3024 12.7498 28.4151V32.3063H6.3125V28.2109Z" fill="#EBE7F2"/>
<path d="M28.3961 22.2807H27.012C28.8388 21.3397 30.0695 19.4043 29.9889 17.1901C29.8863 14.3718 27.5769 12.0386 24.7597 11.9088C21.6084 11.7639 19.008 14.2758 19.008 17.3951C19.008 19.5234 20.2185 21.3689 21.9887 22.2807H20.6045C17.3949 22.2807 14.793 24.8827 14.793 28.0923V36.3659C14.793 36.7698 15.1203 37.0972 15.5242 37.0972H33.4766C33.8805 37.0972 34.2078 36.7698 34.2078 36.3659V28.0923C34.2077 24.8827 31.6057 22.2807 28.3961 22.2807ZM28.8108 29.3898L26.9201 30.7634C26.744 30.8915 26.6703 31.1182 26.7375 31.3254L27.4597 33.548C27.6101 34.0109 27.0802 34.3961 26.6863 34.1099L24.7955 32.7363C24.6195 32.6082 24.381 32.6082 24.2047 32.7363L22.314 34.1099C21.92 34.3961 21.3902 34.0111 21.5405 33.548L22.2628 31.3254C22.3301 31.1184 22.2564 30.8915 22.0802 30.7634L20.1894 29.3898C19.7955 29.1037 19.998 28.4806 20.4847 28.4806H22.8217C23.0394 28.4806 23.2323 28.3404 23.2997 28.1334L24.0219 25.9107C24.1723 25.4478 24.8274 25.4478 24.9778 25.9107L25.7 28.1334C25.7673 28.3404 25.9603 28.4806 26.178 28.4806H28.515C29.0023 28.4808 29.2048 29.1037 28.8108 29.3898Z" fill="white"/>
<path d="M17.8741 21.2133C17.4892 21.0789 17.0904 20.9953 16.6839 20.9636C17.4866 20.1373 17.9517 19.022 17.9517 17.8273C17.9517 15.3431 15.9307 13.322 13.4467 13.322C10.9627 13.322 8.94144 15.3431 8.94144 17.8273C8.94144 19.0218 9.40663 20.1371 10.2093 20.9636C7.76994 21.1548 5.84375 23.201 5.84375 25.6888V32.3066C5.84375 32.5655 6.05356 32.7753 6.3125 32.7753H12.7499C13.0089 32.7753 13.2187 32.5655 13.2187 32.3066C13.2187 32.0476 13.0089 31.8378 12.7499 31.8378H6.78125V25.6888C6.78125 23.5921 8.48694 21.8865 10.5836 21.8865H11.6007C11.8171 21.8865 12.0054 21.7383 12.0564 21.5281C12.1074 21.318 12.0078 21.1001 11.8154 21.0009C10.6211 20.3857 9.87894 19.1696 9.87894 17.8273C9.87894 15.86 11.4794 14.2595 13.4465 14.2595C15.4136 14.2595 17.0141 15.86 17.0141 17.8273C17.0141 19.1696 16.2721 20.3859 15.0778 21.0009C14.8854 21.0999 14.7858 21.3178 14.8368 21.5281C14.8878 21.7385 15.0761 21.8865 15.2924 21.8865H16.3096C16.7397 21.8865 17.1622 21.9579 17.5651 22.0985C17.8098 22.1833 18.0768 22.0548 18.1623 21.8105C18.2474 21.566 18.1186 21.2986 17.8741 21.2133Z" fill="white"/>
<path d="M38.7905 20.9636C39.593 20.1373 40.0584 19.022 40.0584 17.8273C40.0584 15.3431 38.0375 13.322 35.5533 13.322C33.0691 13.322 31.0482 15.3431 31.0482 17.8273C31.0482 19.0218 31.5134 20.1371 32.3161 20.9636C31.9098 20.9953 31.5108 21.0789 31.1259 21.2133C30.8814 21.2986 30.7525 21.566 30.8379 21.8105C30.9232 22.055 31.1907 22.1833 31.435 22.0985C31.8378 21.9579 32.2602 21.8865 32.6905 21.8865H33.7077C33.9241 21.8865 34.1124 21.7383 34.1634 21.5281C34.2144 21.318 34.1148 21.1001 33.9224 21.0009C32.728 20.3859 31.9859 19.1696 31.9859 17.8273C31.9859 15.86 33.5862 14.2595 35.5535 14.2595C37.5207 14.2595 39.121 15.86 39.121 17.8273C39.121 19.1698 38.3791 20.3859 37.1847 21.0009C36.9924 21.0999 36.8928 21.3178 36.9438 21.5281C36.9948 21.7385 37.1829 21.8865 37.3994 21.8865H38.4166C40.5132 21.8865 42.2189 23.5923 42.2189 25.6888V31.8378H36.2502C35.9913 31.8378 35.7815 32.0476 35.7815 32.3066C35.7815 32.5655 35.9913 32.7753 36.2502 32.7753H42.6873C42.9462 32.7753 43.156 32.5655 43.156 32.3066V25.6888C43.156 23.2012 41.2297 21.155 38.7905 20.9636Z" fill="white"/>
</svg>
